# xmcd CD database file
#
# Track frame offsets:
#	150
#	13418
#	36222
#	59730
#	71530
#	89644
#	119776
#	136303
#	157305
#	183503
#	193040
#	206942
#	219647
#	229414
#
# Disc length: 3324 seconds
#
# Revision: 3
# Processed by: cddbd v1.5.1PL0 Copyright (c) Steve Scherf et al.
# Submitted via: CDex 1.51
#
DISCID=ed0cfa0e
DTITLE=Augustine - Esthesis
DYEAR=2005
DGENRE=New Age
TTITLE0=Kymata
TTITLE1=Dreamweaver
TTITLE2=Eros
TTITLE3=Aria
TTITLE4=Sunligt
TTITLE5=Changes
TTITLE6=Senses
TTITLE7=Motions
TTITLE8=Maticstat
TTITLE9=Techno Lights
TTITLE10=Hart Games
TTITLE11=Touch me
TTITLE12=Dance In The Mountains
TTITLE13=Orizon
EXTD=YEAR: 2005
EXTT0=
EXTT1=
EXTT2=
EXTT3=
EXTT4=
EXTT5=
EXTT6=
EXTT7=
EXTT8=
EXTT9=
EXTT10=
EXTT11=
EXTT12=
EXTT13=
PLAYORDER=
